<?xml version="1.0" standalone="no"?>
<!DOCTYPE svg PUBLIC "-//W3C//DTD SVG 20010904//EN"
 "http://www.w3.org/TR/2001/REC-SVG-20010904/DTD/svg10.dtd">
<svg version="1.0" xmlns="http://www.w3.org/2000/svg"
 width="1210.000000pt" height="1280.000000pt" viewBox="0 0 1210.000000 1280.000000"
 preserveAspectRatio="xMidYMid meet">
 <defs>
    <!-- Создаем градиент -->
    <linearGradient id="iconGradient" x1="0%" y1="0%" x2="100%" y2="100%">
      <stop offset="0%" style="stop-color:#3c1053" />
      <stop offset="100%" style="stop-color:#ad5389" />
    </linearGradient>
  </defs>
<metadata>
Created by potrace 1.15, written by Peter Selinger 2001-2017
</metadata>
<g transform="translate(0.000000,1280.000000) scale(0.100000,-0.100000)"
fill="url(#iconGradient)" stroke="none">
<path d="M3735 12793 c-11 -3 -112 -36 -225 -73 -425 -141 -785 -315 -1145
-555 -516 -342 -973 -806 -1318 -1337 -536 -823 -866 -1844 -992 -3073 -45
-444 -67 -1136 -46 -1495 53 -933 253 -1947 536 -2730 345 -950 801 -1668
1380 -2169 l100 -87 -7 -39 c-4 -22 -10 -89 -14 -150 -16 -267 60 -494 215
-638 145 -134 351 -212 426 -163 58 38 77 141 51 266 -20 95 -21 91 10 80 38
-15 111 -12 144 5 39 20 70 62 70 96 0 16 1 29 3 29 2 0 43 -14 93 -30 l89
-30 -92 92 c-50 51 -121 129 -158 173 l-66 80 6 60 c3 33 19 125 35 205 80
402 232 760 438 1034 58 77 90 106 250 228 101 77 186 138 188 135 10 -9 -157
-772 -246 -1130 -67 -265 -177 -598 -234 -705 -8 -15 -24 -52 -36 -82 -56
-142 -184 -353 -284 -470 -31 -36 -56 -68 -56 -71 0 -10 424 -73 825 -123 415
-52 718 -80 1140 -108 257 -16 1001 -16 1175 0 313 30 493 59 686 113 l111 30
-82 122 c-339 502 -638 1126 -770 1604 l-17 62 37 53 c120 166 296 375 512
605 112 118 139 142 166 145 28 3 32 6 30 30 -1 23 14 42 91 112 l93 86 116
33 c101 29 117 31 121 18 3 -9 12 -56 21 -106 41 -232 147 -582 258 -855 91
-223 296 -650 313 -650 3 0 1 8 -4 18 -17 30 -62 174 -87 273 -85 333 -98 710
-35 1007 42 199 133 419 239 576 42 63 56 76 156 135 258 154 510 356 699 558
26 29 89 82 140 117 246 176 424 376 532 599 45 94 94 262 94 323 0 32 2 34
28 28 173 -40 425 -207 584 -386 286 -322 466 -706 623 -1336 81 -323 166
-559 308 -847 204 -412 401 -713 840 -1278 117 -150 220 -284 229 -297 21 -29
14 -9 -72 205 -170 426 -454 1205 -622 1710 -351 1054 -551 1864 -602 2435
-30 330 -177 1061 -332 1645 -443 1674 -1061 3061 -1813 4073 -324 436 -716
843 -1088 1130 -381 295 -800 522 -1222 661 l-94 31 -1211 -1 c-666 -1 -1220
-4 -1231 -6z m-2290 -6063 c104 -408 302 -838 545 -1179 127 -180 229 -301
385 -456 367 -368 796 -638 1300 -820 207 -75 367 -116 675 -172 l45 -9 -250
-126 c-299 -151 -415 -202 -612 -269 -447 -154 -729 -270 -911 -376 l-42 -25
66 -70 65 -70 -113 -116 c-235 -241 -415 -505 -508 -744 -15 -39 -30 -66 -33
-62 -3 5 -26 56 -52 114 -235 527 -427 1168 -539 1795 -141 788 -180 1704
-111 2595 8 102 17 205 21 230 l7 45 17 -90 c10 -49 30 -137 45 -195z m6855
-305 c-25 -301 -89 -546 -211 -820 -174 -388 -439 -757 -974 -1355 -66 -74
-172 -193 -234 -265 -63 -71 -121 -134 -129 -139 -21 -12 -482 -75 -552 -76
-98 0 -464 122 -620 206 -95 52 -176 115 -159 124 8 4 48 13 89 19 173 29 407
94 600 166 699 262 1317 752 1739 1380 188 279 322 554 422 864 31 97 34 101
37 65 2 -21 -1 -97 -8 -169z m-2351 -3679 c-17 -28 -51 -93 -77 -143 -26 -51
-50 -93 -54 -93 -5 0 -8 74 -8 164 l0 163 84 -20 84 -21 -29 -50z"/>
<path d="M12061 833 c1 -16 38 -88 38 -77 1 14 -27 84 -34 84 -3 0 -5 -3 -4
-7z"/>
</g>
</svg>
